<?xml version="1.0" encoding="UTF-8"?><!DOCTYPE svg PUBLIC "-//W3C//DTD SVG 1.1//EN" "http://www.w3.org/Graphics/SVG/1.1/DTD/svg11.dtd"><svg xmlns="http://www.w3.org/2000/svg"><symbol id="cancel" viewBox="0 0 64 64"><path d="M28.941 31.786L.613 60.114a2.014 2.014 0 1 0 2.848 2.849l28.541-28.541 28.541 28.541c.394.394.909.59 1.424.59a2.014 2.014 0 0 0 1.424-3.439L35.064 31.786 63.41 3.438A2.014 2.014 0 1 0 60.562.589L32.003 29.15 3.441.59A2.015 2.015 0 0 0 .593 3.439l28.348 28.347z"/></symbol><symbol id="dots" viewBox="0 0 60 60"><path d="M8 22c-4.411 0-8 3.589-8 8s3.589 8 8 8 8-3.589 8-8-3.589-8-8-8zM52 22c-4.411 0-8 3.589-8 8s3.589 8 8 8 8-3.589 8-8-3.589-8-8-8zM30 22c-4.411 0-8 3.589-8 8s3.589 8 8 8 8-3.589 8-8-3.589-8-8-8z"/></symbol><symbol id="down-arrow" viewBox="0 0 129 129"><path d="M121.3 34.6c-1.6-1.6-4.2-1.6-5.8 0l-51 51.1-51.1-51.1c-1.6-1.6-4.2-1.6-5.8 0-1.6 1.6-1.6 4.2 0 5.8l53.9 53.9c.8.8 1.8 1.2 2.9 1.2 1 0 2.1-.4 2.9-1.2l53.9-53.9c1.7-1.6 1.7-4.2.1-5.8z"/></symbol><symbol id="fb" viewBox="0 0 60.734 60.733"><path d="M57.378.001H3.352A3.352 3.352 0 0 0 0 3.353v54.026a3.353 3.353 0 0 0 3.352 3.354h29.086V37.214h-7.914v-9.167h7.914v-6.76c0-7.843 4.789-12.116 11.787-12.116 3.355 0 6.232.251 7.071.36v8.198l-4.854.002c-3.805 0-4.539 1.809-4.539 4.462v5.851h9.078l-1.187 9.166h-7.892v23.52h15.475a3.355 3.355 0 0 0 3.355-3.351V3.351a3.352 3.352 0 0 0-3.354-3.35z"/></symbol><symbol id="filter" viewBox="0 0 44.023 44.023"><path d="M43.729.29a.98.98 0 0 0-.799-.276H1.099A.985.985 0 0 0 .301.29a.973.973 0 0 0-.203.306.995.995 0 0 0-.098.418c0 .292.129.549.329.731L15 22.284v20.662a.98.98 0 0 0 .077.446.997.997 0 0 0 .923.621.989.989 0 0 0 .749-.354l11.98-11.953a.984.984 0 0 0 .271-.828v-8.589L43.729 1.706a1 1 0 0 0 0-1.416zM27.284 21.288a.988.988 0 0 0-.284.759V30.6l-10 9.977v-18.53a.99.99 0 0 0-.284-.759L2.949 2.014h38.128L27.284 21.288z"/></symbol><symbol id="in" viewBox="0 0 169.063 169.063"><path d="M122.406 0H46.654C20.929 0 0 20.93 0 46.655v75.752c0 25.726 20.929 46.655 46.654 46.655h75.752c25.727 0 46.656-20.93 46.656-46.655V46.655C169.063 20.93 148.133 0 122.406 0zm31.657 122.407c0 17.455-14.201 31.655-31.656 31.655H46.654C29.2 154.063 15 139.862 15 122.407V46.655C15 29.201 29.2 15 46.654 15h75.752c17.455 0 31.656 14.201 31.656 31.655v75.752z"/><path d="M84.531 40.97c-24.021 0-43.563 19.542-43.563 43.563 0 24.02 19.542 43.561 43.563 43.561s43.563-19.541 43.563-43.561c0-24.021-19.542-43.563-43.563-43.563zm0 72.123c-15.749 0-28.563-12.812-28.563-28.561 0-15.75 12.813-28.563 28.563-28.563s28.563 12.813 28.563 28.563c0 15.749-12.814 28.561-28.563 28.561zM129.921 28.251c-2.89 0-5.729 1.17-7.77 3.22a11.053 11.053 0 0 0-3.23 7.78c0 2.891 1.18 5.73 3.23 7.78 2.04 2.04 4.88 3.22 7.77 3.22 2.9 0 5.73-1.18 7.78-3.22 2.05-2.05 3.22-4.89 3.22-7.78 0-2.9-1.17-5.74-3.22-7.78-2.04-2.05-4.88-3.22-7.78-3.22z"/></symbol><symbol id="like" viewBox="0 0 51.997 51.997"><path d="M51.911 16.242c-.759-8.354-6.672-14.415-14.072-14.415-4.93 0-9.444 2.653-11.984 6.905-2.517-4.307-6.846-6.906-11.697-6.906C6.759 1.826.845 7.887.087 16.241c-.06.369-.306 2.311.442 5.478 1.078 4.568 3.568 8.723 7.199 12.013l18.115 16.439 18.426-16.438c3.631-3.291 6.121-7.445 7.199-12.014.748-3.166.502-5.108.443-5.477z"/></symbol><symbol id="menu" viewBox="0 0 24 24"><path d="M24 3c0-.6-.4-1-1-1H1c-.6 0-1 .4-1 1v2c0 .6.4 1 1 1h22c.6 0 1-.4 1-1V3zM24 11c0-.6-.4-1-1-1H1c-.6 0-1 .4-1 1v2c0 .6.4 1 1 1h22c.6 0 1-.4 1-1v-2zM24 19c0-.6-.4-1-1-1H1c-.6 0-1 .4-1 1v2c0 .6.4 1 1 1h22c.6 0 1-.4 1-1v-2z"/></symbol><symbol id="next" viewBox="0 0 22.1 40.7"><style>.st0{fill:#fff;fill-opacity:0;stroke:#4d4d4d;stroke-miterlimit:50}</style><title>&#x432;&#x43F;&#x435;&#x440;&#x435;&#x434;</title><path id="SvgjsPath1012" class="st0" d="M1.3.6L21 20.4 1.3 40.1"/></symbol><symbol id="pin" viewBox="0 0 533.333 533.333"><path d="M266.667 0C119.391 0 0 119.391 0 266.667c0 147.275 119.388 266.666 266.667 266.666 147.275 0 266.667-119.391 266.667-266.666C533.333 119.391 413.942 0 266.667 0zm25.856 356.311c-24.229-1.882-34.397-13.883-53.388-25.421-10.448 54.781-23.21 107.302-61.01 134.734-11.669-82.795 17.132-144.981 30.505-210.997-22.804-38.389 2.744-115.643 50.844-96.601 59.18 23.41-51.25 142.712 22.881 157.613 77.406 15.556 109.004-134.302 61.011-183.035-69.354-70.367-201.874-1.604-185.578 99.144 3.966 24.631 29.412 32.103 10.168 66.095-44.385-9.839-57.63-44.845-55.925-91.517 2.744-76.393 68.638-129.877 134.733-137.274 83.584-9.356 162.035 30.681 172.867 109.311 12.195 88.744-37.732 184.86-127.108 177.948z"/></symbol><symbol id="prev" viewBox="0 0 22.1 40.7"><style>.st0{fill:#fff;fill-opacity:0;stroke:#4d4d4d;stroke-miterlimit:50}</style><title>&#x43D;&#x430;&#x437;&#x430;&#x434;</title><path id="SvgjsPath1008" class="st0" d="M20.8.6L1 20.4l19.8 19.8"/></symbol><symbol id="search" viewBox="0 0 250.313 250.313"><path d="M244.186 214.604l-54.379-54.378c-.289-.289-.628-.491-.93-.76 10.7-16.231 16.945-35.66 16.945-56.554C205.822 46.075 159.747 0 102.911 0S0 46.075 0 102.911c0 56.835 46.074 102.911 102.91 102.911 20.895 0 40.323-6.245 56.554-16.945.269.301.47.64.759.929l54.38 54.38c8.169 8.168 21.413 8.168 29.583 0 8.168-8.169 8.168-21.413 0-29.582zm-141.275-44.458c-37.134 0-67.236-30.102-67.236-67.235 0-37.134 30.103-67.236 67.236-67.236 37.132 0 67.235 30.103 67.235 67.236s-30.103 67.235-67.235 67.235z"/></symbol><symbol id="tw" viewBox="0 0 612 612"><path d="M612 116.258a250.714 250.714 0 0 1-72.088 19.772c25.929-15.527 45.777-40.155 55.184-69.411-24.322 14.379-51.169 24.82-79.775 30.48-22.907-24.437-55.49-39.658-91.63-39.658-69.334 0-125.551 56.217-125.551 125.513 0 9.828 1.109 19.427 3.251 28.606-104.326-5.24-196.835-55.223-258.75-131.174-10.823 18.51-16.98 40.078-16.98 63.101 0 43.559 22.181 81.993 55.835 104.479a125.556 125.556 0 0 1-56.867-15.756v1.568c0 60.806 43.291 111.554 100.693 123.104-10.517 2.83-21.607 4.398-33.08 4.398-8.107 0-15.947-.803-23.634-2.333 15.985 49.907 62.336 86.199 117.253 87.194-42.947 33.654-97.099 53.655-155.916 53.655-10.134 0-20.116-.612-29.944-1.721 55.567 35.681 121.536 56.485 192.438 56.485 230.948 0 357.188-191.291 357.188-357.188l-.421-16.253c24.666-17.593 46.005-39.697 62.794-64.861z"/></symbol></svg>